# Blender v2.60 (sub 0) OBJ File: 'level.blend'
# www.blender.org
v 0.139604 -1.000000 -1.000000
v -0.139604 -1.000000 -1.000000
v 0.139604 -1.000000 1.000000
v -0.139604 -1.000000 1.000000
v 0.139604 1.000000 -0.999999
v -0.139604 1.000000 -0.999999
v 0.139604 1.000000 1.000001
v -0.139604 1.000000 1.000001
v 0.000000 -1.000000 1.000000
v 0.139604 -1.000000 0.000000
v -0.139604 -1.000000 0.000000
v 0.000000 -1.000000 -1.000000
v 0.139604 1.000000 0.000001
v -0.139604 1.000000 0.000001
v 0.000000 1.000000 1.000000
v 0.000000 1.000000 -1.000000
v 0.139604 0.000000 1.000000
v -0.139604 0.000000 1.000000
v 0.139604 0.000000 -1.000000
v -0.139604 0.000000 -1.000000
v 0.000000 -1.000000 -0.000000
v 0.000000 1.000000 0.000000
v 0.000000 0.000000 1.000000
v 0.000000 0.000000 -1.000000
v 0.416149 0.000000 -0.999999
v -0.416149 0.000000 -0.999999
v 0.416149 0.000000 1.000001
v -0.416149 0.000000 1.000001
v 0.416149 1.000000 0.000002
v -0.416149 1.000000 0.000002
v 0.416149 -0.457146 0.000001
v -0.416149 -0.457146 0.000001
v 0.416149 1.000000 1.000002
v -0.416149 1.000000 1.000002
v 0.416149 1.000000 -0.999998
v -0.416149 1.000000 -0.999998
v 0.416149 -0.457146 1.000001
v -0.416149 -0.457146 1.000001
v 0.416149 -0.457146 -0.999999
v -0.416149 -0.457146 -0.999999
v 0.835069 -0.457146 -0.999998
v -0.835069 -0.457146 -0.999998
v 0.835069 -0.457146 1.000002
v -0.835069 -0.457146 1.000002
v 0.835069 1.000000 -0.999997
v -0.835069 1.000000 -0.999997
v 0.835069 1.000000 1.000003
v -0.835069 1.000000 1.000003
v 0.835069 -0.457146 0.000002
v -0.835069 -0.457146 0.000002
v 0.835069 1.000000 0.000003
v -0.835069 1.000000 0.000003
v 0.835069 0.000000 1.000003
v -0.835069 0.000000 1.000003
v 0.835069 0.000000 -0.999997
v -0.835069 0.000000 -0.999997
v 0.921379 0.000000 -0.999997
v -0.921379 0.000000 -0.999997
v 0.921379 0.000000 1.000003
v -0.921379 0.000000 1.000003
v 0.921379 1.000000 0.000003
v -0.921379 1.000000 0.000003
v 0.921379 -0.713494 0.000003
v -0.921379 -0.713494 0.000003
v 0.921379 1.000000 1.000003
v -0.921379 1.000000 1.000003
v 0.921379 1.000000 -0.999997
v -0.921379 1.000000 -0.999997
v 0.921379 -0.713494 1.000003
v -0.921379 -0.713494 1.000003
v 0.921379 -0.713494 -0.999997
v -0.921379 -0.713494 -0.999997
v 0.997164 -0.713494 -0.999997
v -0.997164 -0.713494 -0.999997
v 0.997164 -0.713494 1.000003
v -0.997164 -0.713494 1.000003
v 0.997164 1.000000 -0.999997
v -0.997164 1.000000 -0.999997
v 0.997164 1.000000 1.000003
v -0.997164 1.000000 1.000003
v 0.997164 -0.713494 0.000003
v -0.997164 -0.713494 0.000003
v 0.997164 1.000000 0.000003
v -0.997164 1.000000 0.000003
v 0.997164 0.000000 1.000003
v -0.997164 0.000000 1.000003
v 0.997164 0.000000 -0.999997
v -0.997164 0.000000 -0.999997
v 0.997164 0.000000 0.000003
v -0.997164 0.000000 0.000003
vt 0.372683 0.506250
vt 0.372683 0.261606
vt 0.327719 0.261606
vt 0.327719 0.506250
vt 0.282756 0.261606
vt 0.282756 0.506250
vt 0.372683 0.016963
vt 0.327719 0.016963
vt 0.282756 0.750894
vt 0.327719 0.750894
vt 0.372683 0.750894
vt 0.327719 0.995537
vt 0.282756 0.995537
vt 0.282756 0.016963
vt 0.461752 0.750894
vt 0.461752 0.506250
vt 0.193687 0.261606
vt 0.193687 0.016963
vt 0.461752 0.394412
vt 0.193687 0.506250
vt 0.193687 0.394412
vt 0.461752 0.016963
vt 0.461752 0.261606
vt 0.193687 0.750894
vt 0.193687 0.750893
vt 0.193687 0.995537
vt 0.461752 0.750893
vt -0.004341 0.261606
vt 0.327719 0.394412
vt -0.004341 0.394412
vt 0.659780 0.261606
vt 0.659779 0.394412
vt 0.596677 0.750893
vt 0.596677 0.506249
vt 0.058762 0.750893
vt 0.058762 0.506249
vt 0.461752 0.995537
vt 0.596677 0.995537
vt 0.058762 0.261606
vt 0.596677 0.261606
vt 0.058762 0.995537
vt 0.596677 0.394412
vt 0.596677 0.506250
vt 0.058762 0.394412
vt 0.058762 0.506250
vt 0.596677 0.016963
vt 0.058762 0.750894
vt 0.596677 0.750894
vt 0.058762 0.016963
vt 0.624476 0.750894
vt 0.624476 0.506250
vt 0.030963 0.261606
vt 0.030963 0.016963
vt 0.624476 0.331698
vt 0.030963 0.506250
vt 0.030963 0.331698
vt 0.624476 0.016963
vt 0.624476 0.261606
vt 0.030963 0.750894
vt 0.624476 0.506249
vt 0.030963 0.750893
vt 0.030963 0.995536
vt 0.624476 0.750893
vt 0.030963 0.506249
vt 0.991839 0.394412
vt 0.991839 0.331698
vt 0.659779 0.331698
vt 0.327719 0.331698
vt -0.004342 0.394412
vt -0.004342 0.331698
vt 0.648884 0.750893
vt 0.648884 0.506249
vt 0.006554 0.750893
vt 0.006554 0.506249
vt 0.624476 0.995537
vt 0.648884 0.995537
vt 0.006554 0.261606
vt 0.648884 0.261605
vt 0.006554 0.995536
vt 0.648884 0.331698
vt 0.648884 0.506250
vt 0.006554 0.331698
vt 0.006554 0.506250
vt 0.648884 0.016963
vt 0.648884 0.261606
vt 0.006554 0.750894
vt 0.648884 0.750894
vt 0.006554 0.016963
vt 0.659779 0.506250
vt 0.659779 0.750894
vt 0.327718 0.750894
vt 0.327718 0.506250
vt 0.327718 0.261606
vt 0.659779 0.261606
vt 0.659779 0.016963
vt 0.327718 0.016963
vt 0.327718 0.331698
vt -0.004342 0.750894
vt -0.004342 0.506250
vt 0.991839 0.261606
vt 0.991839 0.016963
vt 0.991839 0.506250
vn 0.000000 -1.000000 0.000000
vn 0.000000 1.000000 0.000000
vn -0.000003 -0.000000 1.000000
vn 0.000003 -0.000000 1.000000
vn -0.000001 -0.000000 1.000000
vn 0.000001 -0.000000 1.000000
vn 0.000001 0.000000 -1.000000
vn -0.000001 0.000000 -1.000000
vn 0.000002 0.000000 -1.000000
vn -0.000002 0.000000 -1.000000
vn 0.000004 0.000000 -1.000000
vn -0.000004 0.000000 -1.000000
vn -0.000004 -0.000000 1.000000
vn 0.000004 -0.000000 1.000000
vn -0.000001 1.000000 -0.000000
vn 0.000001 1.000000 -0.000000
vn 0.891041 -0.453922 0.000000
vn -0.891041 -0.453922 0.000000
vn -0.000003 -0.000001 1.000000
vn 0.000003 -0.000001 1.000000
vn 0.000003 0.000001 -1.000000
vn -0.000003 0.000001 -1.000000
vn 0.000003 0.000000 -1.000000
vn -0.000003 0.000000 -1.000000
vn -0.947724 -0.319090 0.000000
vn 0.947724 -0.319090 0.000000
vn -0.000002 -0.000000 1.000000
vn 0.000002 -0.000000 1.000000
vn 1.000000 0.000000 0.000000
vn -1.000000 0.000000 0.000000
usemtl 
s off
f 10/1/1 3/2/1 9/3/1
f 10/1/1 9/3/1 21/4/1
f 9/3/1 4/5/1 11/6/1
f 9/3/1 11/6/1 21/4/1
f 1/2/1 10/7/1 21/8/1
f 1/2/1 21/8/1 12/3/1
f 21/4/1 11/6/1 2/9/1
f 21/4/1 2/9/1 12/10/1
f 5/11/2 16/10/2 22/4/2
f 5/11/2 22/4/2 13/1/2
f 22/4/2 16/10/2 6/9/2
f 22/4/2 6/9/2 14/6/2
f 13/1/2 22/4/2 15/3/2
f 13/1/2 15/3/2 7/2/2
f 15/10/2 22/12/2 14/13/2
f 15/10/2 14/13/2 8/9/2
f 17/1/3 7/11/3 15/10/3
f 17/1/3 15/10/3 23/4/3
f 15/3/4 8/5/4 18/14/4
f 15/3/4 18/14/4 23/8/4
f 3/2/5 17/1/5 23/4/5
f 3/2/5 23/4/5 9/3/5
f 23/4/6 18/6/6 4/5/6
f 23/4/6 4/5/6 9/3/6
f 19/1/7 1/2/7 12/3/7
f 19/1/7 12/3/7 24/4/7
f 12/3/8 2/5/8 20/6/8
f 12/3/8 20/6/8 24/4/8
f 5/2/9 19/7/9 24/8/9
f 5/2/9 24/8/9 16/3/9
f 24/4/10 20/6/10 6/9/10
f 24/4/10 6/9/10 16/10/10
f 19/1/11 5/11/11 35/15/11
f 19/1/11 35/15/11 25/16/11
f 36/17/12 6/5/12 20/14/12
f 36/17/12 20/14/12 26/18/12
f 1/2/11 19/1/11 25/16/11
f 1/2/11 25/16/11 39/19/11
f 26/20/12 20/6/12 2/5/12
f 26/20/12 2/5/12 40/21/12
f 7/2/13 17/7/13 27/22/13
f 7/2/13 27/22/13 33/23/13
f 28/20/14 18/6/14 8/9/14
f 28/20/14 8/9/14 34/24/14
f 17/1/13 3/2/13 37/19/13
f 17/1/13 37/19/13 27/16/13
f 38/21/14 4/5/14 18/6/14
f 38/21/14 18/6/14 28/20/14
f 13/1/15 7/2/15 33/23/15
f 13/1/15 33/23/15 29/16/15
f 34/25/16 8/9/16 14/13/16
f 34/25/16 14/13/16 30/26/16
f 5/11/15 13/1/15 29/16/15
f 5/11/15 29/16/15 35/27/15
f 30/20/16 14/6/16 6/9/16
f 30/20/16 6/9/16 36/25/16
f 3/28/17 10/3/17 31/29/17
f 3/28/17 31/29/17 37/30/17
f 32/29/18 11/3/18 4/28/18
f 32/29/18 4/28/18 38/30/18
f 10/3/17 1/31/17 39/32/17
f 10/3/17 39/32/17 31/29/17
f 40/32/18 2/31/18 11/3/18
f 40/32/18 11/3/18 32/29/18
f 31/16/1 39/27/1 41/33/1
f 31/16/1 41/33/1 49/34/1
f 42/35/1 40/25/1 32/20/1
f 42/35/1 32/20/1 50/36/1
f 37/27/1 31/37/1 49/38/1
f 37/27/1 49/38/1 43/33/1
f 50/36/1 32/20/1 38/17/1
f 50/36/1 38/17/1 44/39/1
f 35/27/2 29/16/2 51/34/2
f 35/27/2 51/34/2 45/33/2
f 52/36/2 30/20/2 36/25/2
f 52/36/2 36/25/2 46/35/2
f 29/16/2 33/23/2 47/40/2
f 29/16/2 47/40/2 51/34/2
f 48/35/2 34/25/2 30/26/2
f 48/35/2 30/26/2 52/41/2
f 27/16/19 37/19/19 43/42/19
f 27/16/19 43/42/19 53/43/19
f 44/44/20 38/21/20 28/20/20
f 44/44/20 28/20/20 54/45/20
f 33/23/3 27/22/3 53/46/3
f 33/23/3 53/46/3 47/40/3
f 54/45/4 28/20/4 34/24/4
f 54/45/4 34/24/4 48/47/4
f 39/19/21 25/16/21 55/43/21
f 39/19/21 55/43/21 41/42/21
f 56/45/22 26/20/22 40/21/22
f 56/45/22 40/21/22 42/44/22
f 25/16/23 35/15/23 45/48/23
f 25/16/23 45/48/23 55/43/23
f 46/39/24 36/17/24 26/18/24
f 46/39/24 26/18/24 56/49/24
f 55/43/23 45/48/23 67/50/23
f 55/43/23 67/50/23 57/51/23
f 68/52/24 46/39/24 56/49/24
f 68/52/24 56/49/24 58/53/24
f 41/42/23 55/43/23 57/51/23
f 41/42/23 57/51/23 71/54/23
f 58/55/24 56/45/24 42/44/24
f 58/55/24 42/44/24 72/56/24
f 47/40/3 53/46/3 59/57/3
f 47/40/3 59/57/3 65/58/3
f 60/55/4 54/45/4 48/47/4
f 60/55/4 48/47/4 66/59/4
f 53/43/3 43/42/3 69/54/3
f 53/43/3 69/54/3 59/51/3
f 70/56/4 44/44/4 54/45/4
f 70/56/4 54/45/4 60/55/4
f 51/34/2 47/40/2 65/58/2
f 51/34/2 65/58/2 61/60/2
f 66/61/2 48/35/2 52/41/2
f 66/61/2 52/41/2 62/62/2
f 45/33/2 51/34/2 61/60/2
f 45/33/2 61/60/2 67/63/2
f 62/64/2 52/36/2 46/35/2
f 62/64/2 46/35/2 68/61/2
f 43/32/25 49/65/25 63/66/25
f 43/32/25 63/66/25 69/67/25
f 64/68/26 50/29/26 44/69/26
f 64/68/26 44/69/26 70/70/26
f 49/29/25 41/32/25 71/67/25
f 49/29/25 71/67/25 63/68/25
f 72/67/26 42/32/26 50/29/26
f 72/67/26 50/29/26 64/68/26
f 63/60/1 71/63/1 73/71/1
f 63/60/1 73/71/1 81/72/1
f 74/73/1 72/61/1 64/64/1
f 74/73/1 64/64/1 82/74/1
f 69/63/1 63/75/1 81/76/1
f 69/63/1 81/76/1 75/71/1
f 82/74/1 64/64/1 70/52/1
f 82/74/1 70/52/1 76/77/1
f 67/63/2 61/60/2 83/72/2
f 67/63/2 83/72/2 77/71/2
f 84/74/2 62/64/2 68/61/2
f 84/74/2 68/61/2 78/73/2
f 61/60/2 65/58/2 79/78/2
f 61/60/2 79/78/2 83/72/2
f 80/73/2 66/61/2 62/62/2
f 80/73/2 62/62/2 84/79/2
f 59/51/27 69/54/27 75/80/27
f 59/51/27 75/80/27 85/81/27
f 76/82/28 70/56/28 60/55/28
f 76/82/28 60/55/28 86/83/28
f 65/58/27 59/57/27 85/84/27
f 65/58/27 85/84/27 79/85/27
f 86/83/28 60/55/28 66/59/28
f 86/83/28 66/59/28 80/86/28
f 71/54/9 57/51/9 87/81/9
f 71/54/9 87/81/9 73/80/9
f 88/83/10 58/55/10 72/56/10
f 88/83/10 72/56/10 74/82/10
f 57/51/9 67/50/9 77/87/9
f 57/51/9 77/87/9 87/81/9
f 78/77/10 68/52/10 58/53/10
f 78/77/10 58/53/10 88/88/10
f 87/89/29 77/90/29 83/91/29
f 87/89/29 83/91/29 89/92/29
f 84/93/30 78/94/30 88/95/30
f 84/93/30 88/95/30 90/96/30
f 73/67/29 87/89/29 89/92/29
f 73/67/29 89/92/29 81/97/29
f 90/92/30 88/89/30 74/67/30
f 90/92/30 74/67/30 82/97/30
f 89/92/29 83/91/29 79/98/29
f 89/92/29 79/98/29 85/99/29
f 80/94/30 84/100/30 90/101/30
f 80/94/30 90/101/30 86/95/30
f 81/97/29 89/92/29 85/99/29
f 81/97/29 85/99/29 75/70/29
f 86/89/30 90/102/30 82/66/30
f 86/89/30 82/66/30 76/67/30
